<?xml version="1.0" encoding="UTF-8" standalone="no"?>
<svg
   viewBox="0 0 282 282"
   version="1.1"
   id="svg31"
   sodipodi:docname="logo_ddc_for_pdf.svg"
   inkscape:version="1.4.3 (0d15f75, 2025-12-25)"
   xmlns:inkscape="http://www.inkscape.org/namespaces/inkscape"
   xmlns:sodipodi="http://sodipodi.sourceforge.net/DTD/sodipodi-0.dtd"
   xmlns="http://www.w3.org/2000/svg"
   xmlns:svg="http://www.w3.org/2000/svg">
  <defs
     id="defs31" />
  <sodipodi:namedview
     id="namedview31"
     pagecolor="#ffffff"
     bordercolor="#000000"
     borderopacity="0.25"
     inkscape:showpageshadow="2"
     inkscape:pageopacity="0.0"
     inkscape:pagecheckerboard="0"
     inkscape:deskcolor="#d1d1d1"
     inkscape:zoom="4.3278947"
     inkscape:cx="95.658519"
     inkscape:cy="162.31911"
     inkscape:window-width="1920"
     inkscape:window-height="1123"
     inkscape:window-x="-9"
     inkscape:window-y="39"
     inkscape:window-maximized="1"
     inkscape:current-layer="svg31" />
  <path
     style="fill:#005500;stroke-width:0"
     d="m 129,57.9 -6.5,3.9 -0.3,28.3 -0.2,28.3 5,4.8 c 4.2,4.2 5.5,4.9 8.2,4.6 l 3.3,-0.3 -0.2,-10.2 c -0.1,-9.9 -0.2,-10.4 -3.2,-14 -3.9,-4.7 -4,-8.1 -0.2,-11.7 2.7,-2.6 3,-3.4 3.5,-13 0.7,-11.1 -0.3,-23.7 -1.9,-24.3 -0.6,-0.2 -4,1.4 -7.5,3.6"
     id="path18" />
  <path
     style="fill:#005500;stroke-width:0"
     d="m 105.73106,72.093178 -6.000001,3.3 -0.3,12.4 -0.2,12.400002 3.100001,3.3 c 4.2,4.5 4.2,8.9 0,13.7 -2.3,2.6 -3.100001,4.6 -3.100001,7.3 0,3.3 0.800001,4.5 6.000001,9.7 3.5,3.4 6,6.8 6,8 0,1.2 -2.5,4.6 -6,8 -5.500001,5.5 -6.000001,6.3 -6.000001,10.3 0,3.4 0.7,5.3 3.000001,8.2 3.9,4.9 3.9,8.6 0,13.5 l -3.100001,3.8 0.3,12.6 0.3,12.6 6.800001,3.9 c 5.3,3 7.1,3.6 8,2.7 0.9,-0.9 1.3,-8.6 1.4,-27.3 l 0.2,-26.1 5.6,-5.8 5.5,-5.8 v -19.8 l -5.7,-5.2 -5.8,-5.2 V 98.393178 c -0.1,-13.3 -0.2,-25.4 -0.3,-27 -0.3,-3.6 -2.2,-3.5 -9.7,0.7"
     id="path46" />
  <path
     style="fill:#005500;stroke-width:0"
     d="m 127.2,161.9 -5.2,5 0.2,28.3 0.3,28.3 6,3.7 c 8.9,5.5 9.2,5.4 10,-4.8 0.4,-4.7 0.4,-12.2 0,-16.7 -0.6,-7 -1.1,-8.6 -3.6,-11.5 -3.7,-4.1 -3.7,-7.3 0,-12.5 3.4,-4.9 4.6,-11.2 3.6,-19.2 -0.6,-5.2 -0.8,-5.5 -3.4,-5.5 -1.9,0 -4.3,1.5 -7.9,4.9"
     id="path44" />
  <path
     style="fill:#005500;stroke-width:0"
     d="m 156.04235,160.48726 5.2,5 -0.2,28.3 -0.3,28.3 -6,3.7 c -8.9,5.5 -9.2,5.4 -10,-4.8 -0.4,-4.7 -0.4,-12.2 0,-16.7 0.6,-7 1.1,-8.6 3.6,-11.5 3.7,-4.1 3.7,-7.3 0,-12.5 -3.4,-4.9 -4.6,-11.2 -3.6,-19.2 0.6,-5.2 0.8,-5.5 3.4,-5.5 1.9,0 4.3,1.5 7.9,4.9"
     id="path44-5" />
  <path
     style="fill:#005500;stroke-width:0"
     d="m 134,143 v 8 h 16 v -16 h -16 z"
     id="path43" />
  <path
     style="fill:#005500;stroke-width:0"
     d="m 63.5,95.4 c -1.9,1.4 -2,2.8 -2.1,46 -0.1,47.6 0,49.1 4.6,49.1 h 2.5 l 0.3,-19 0.2,-19.1 -3,-3.4 c -4.1,-4.5 -4.1,-8.9 0,-13.2 l 3,-3.1 -0.2,-19.1 C 68.5,97.5 68.3,94.5 67,94.2 c -0.9,-0.1 -2.4,0.4 -3.5,1.2"
     id="path41" />
  <path
     style="fill:#005500;stroke-width:0"
     d="M 82.3,84.7 76,88.4 v 22.3 c 0,12.2 0.4,22.4 0.8,22.7 0.5,0.3 2.1,2.3 3.6,4.4 2.6,3.8 2.6,4.2 1.3,7.3 -0.8,1.9 -2.4,4.3 -3.6,5.3 -2,1.8 -2.1,2.7 -2.1,24.2 v 22.2 l 5.7,3.7 c 3.2,1.9 6.7,3.4 7.8,3.3 1.8,-0.3 2,-1.2 2.3,-9.5 0.3,-8.9 0.2,-9.2 -2.7,-12.6 -1.9,-2.2 -3.1,-4.6 -3.1,-6.4 0,-2.9 2.3,-7.1 4.7,-8.6 0.9,-0.5 1.3,-3 1.3,-7.2 V 153 l 5.6,-5.6 5.6,-5.6 -5.6,-5.7 c -5.4,-5.5 -5.6,-5.8 -5.6,-11.2 0,-4.7 -0.4,-5.9 -3,-8.7 -4,-4.4 -4,-8.3 0,-12.9 3,-3.4 3.1,-3.7 2.8,-12.6 -0.2,-7.2 -0.6,-9.2 -1.8,-9.4 -0.8,-0.2 -4.3,1.4 -7.7,3.4"
     id="path20" />
  <path
     style="fill:#005500;stroke-width:0"
     d="m 204.34631,84.670595 6.3,3.7 V 110.6706 c 0,12.20002 -0.4,22.40001 -0.8,22.70002 -0.5,0.3 -2.1,2.3 -3.6,4.4 -2.6,3.8 -2.6,4.2 -1.3,7.3 0.8,1.9 2.4,4.3 3.6,5.3 2,1.8 2.1,2.7 2.1,24.2 v 22.19999 l -5.7,3.7 c -3.2,1.9 -6.7,3.4 -7.8,3.3 -1.8,-0.3 -2,-1.19999 -2.3,-9.5 -0.3,-8.9 -0.2,-9.19999 2.7,-12.59999 1.9,-2.2 3.1,-4.6 3.1,-6.40001 0,-2.9 -2.3,-7.09999 -4.7,-8.59999 -0.9,-0.5 -1.3,-3 -1.3,-7.2 v -6.50001 l -5.6,-5.6 -5.6,-5.59999 5.6,-5.7 c 5.4,-5.5 5.6,-5.8 5.6,-11.2 0,-4.70001 0.4,-5.90001 3,-8.70002 4,-4.4 4,-8.3 0,-12.9 -3,-3.400009 -3.1,-3.700005 -2.8,-12.600005 0.2,-7.2 0.6,-9.2 1.8,-9.4 0.8,-0.2 4.3,1.4 7.7,3.4"
     id="path20-8" />
  <path
     style="fill:#005500;stroke-width:0"
     d="m 179.2071,72.586603 6,3.3 0.3,12.399999 0.2,12.400008 -3.1,3.3 c -4.2,4.50001 -4.2,8.90001 0,13.70001 2.3,2.6 3.1,4.6 3.1,7.3 0,3.3 -0.8,4.5 -6,9.7 -3.5,3.4 -6,6.8 -6,8 0,1.2 2.5,4.6 6,8 5.5,5.5 6,6.3 6,10.3 0,3.4 -0.7,5.3 -3,8.2 -3.9,4.9 -3.9,8.6 0,13.5 l 3.1,3.8 -0.3,12.6 -0.3,12.6 -6.8,3.9 c -5.3,3 -7.1,3.6 -8,2.7 -0.9,-0.9 -1.3,-8.6 -1.4,-27.3 l -0.2,-26.1 -5.6,-5.8 -5.5,-5.8 v -19.8 l 5.7,-5.2 5.8,-5.2 V 98.886602 c 0.1,-13.3 0.2,-25.399999 0.3,-26.999999 0.3,-3.6 2.2,-3.5 9.7,0.7"
     id="path49-9" />
  <path
     style="fill:#005500;stroke-width:0"
     d="m 152.91118,57.958389 6.5,3.9 0.3,28.3 0.2,28.300001 -5,4.8 c -4.2,4.2 -5.5,4.9 -8.2,4.6 l -3.3,-0.3 0.2,-10.2 c 0.1,-9.9 0.2,-10.4 3.2,-14 3.9,-4.700001 4,-8.100001 0.2,-11.700001 -2.7,-2.6 -3,-3.4 -3.5,-13 -0.7,-11.1 0.3,-23.7 1.9,-24.3 0.6,-0.2 4,1.4 7.5,3.6"
     id="path18-2" />
  <path
     style="fill:#005500;stroke-width:0"
     d="m 222.33716,95.962771 c 1.9,1.4 2,2.8 2.1,45.999999 0.1,47.6 0,49.1 -4.6,49.1 h -2.5 l -0.3,-19 -0.2,-19.1 3,-3.4 c 4.1,-4.5 4.1,-8.9 0,-13.2 l -3,-3.1 0.2,-19.1 c 0.3,-16.099999 0.5,-19.099999 1.8,-19.399999 0.9,-0.1 2.4,0.4 3.5,1.2"
     id="path41-1" />
  <path
     style="fill:#005500"
     d="m 127.31363,133.09011 30.73088,-0.23105"
     id="path1" />
</svg>
