<?xml version="1.0" encoding="UTF-8" standalone="no"?>
<svg
   viewBox="0 0 282 282"
   version="1.1"
   id="svg31"
   sodipodi:docname="logo_ddc.svg"
   inkscape:version="1.4.3 (0d15f75, 2025-12-25)"
   xmlns:inkscape="http://www.inkscape.org/namespaces/inkscape"
   xmlns:sodipodi="http://sodipodi.sourceforge.net/DTD/sodipodi-0.dtd"
   xmlns="http://www.w3.org/2000/svg"
   xmlns:svg="http://www.w3.org/2000/svg">
  <defs
     id="defs31" />
  <sodipodi:namedview
     id="namedview31"
     pagecolor="#ffffff"
     bordercolor="#000000"
     borderopacity="0.25"
     inkscape:showpageshadow="2"
     inkscape:pageopacity="0.0"
     inkscape:pagecheckerboard="0"
     inkscape:deskcolor="#d1d1d1"
     inkscape:zoom="4.3278947"
     inkscape:cx="135.40071"
     inkscape:cy="163.24334"
     inkscape:window-width="1920"
     inkscape:window-height="1123"
     inkscape:window-x="-9"
     inkscape:window-y="39"
     inkscape:window-maximized="1"
     inkscape:current-layer="svg31" />
  <path
     style="fill:#ffffff;stroke-width:0"
     d="m 129,57.9 -6.5,3.9 -0.3,28.3 -0.2,28.3 5,4.8 c 4.2,4.2 5.5,4.9 8.2,4.6 l 3.3,-0.3 -0.2,-10.2 c -0.1,-9.9 -0.2,-10.4 -3.2,-14 -3.9,-4.7 -4,-8.1 -0.2,-11.7 2.7,-2.6 3,-3.4 3.5,-13 0.7,-11.1 -0.3,-23.7 -1.9,-24.3 -0.6,-0.2 -4,1.4 -7.5,3.6"
     id="path18" />
  <path
     style="fill:#ffffff;stroke-width:0"
     d="m 105.73106,72.093178 -6.000001,3.3 -0.3,12.4 -0.2,12.400002 3.100001,3.3 c 4.2,4.5 4.2,8.9 0,13.7 -2.3,2.6 -3.100001,4.6 -3.100001,7.3 0,3.3 0.800001,4.5 6.000001,9.7 3.5,3.4 6,6.8 6,8 0,1.2 -2.5,4.6 -6,8 -5.500001,5.5 -6.000001,6.3 -6.000001,10.3 0,3.4 0.7,5.3 3.000001,8.2 3.9,4.9 3.9,8.6 0,13.5 l -3.100001,3.8 0.3,12.6 0.3,12.6 6.800001,3.9 c 5.3,3 7.1,3.6 8,2.7 0.9,-0.9 1.3,-8.6 1.4,-27.3 l 0.2,-26.1 5.6,-5.8 5.5,-5.8 v -19.8 l -5.7,-5.2 -5.8,-5.2 V 98.393178 c -0.1,-13.3 -0.2,-25.4 -0.3,-27 -0.3,-3.6 -2.2,-3.5 -9.7,0.7"
     id="path46" />
  <path
     style="fill:#ffffff;stroke-width:0"
     d="m 127.2,161.9 -5.2,5 0.2,28.3 0.3,28.3 6,3.7 c 8.9,5.5 9.2,5.4 10,-4.8 0.4,-4.7 0.4,-12.2 0,-16.7 -0.6,-7 -1.1,-8.6 -3.6,-11.5 -3.7,-4.1 -3.7,-7.3 0,-12.5 3.4,-4.9 4.6,-11.2 3.6,-19.2 -0.6,-5.2 -0.8,-5.5 -3.4,-5.5 -1.9,0 -4.3,1.5 -7.9,4.9"
     id="path44" />
  <path
     style="fill:#ffffff;stroke-width:0"
     d="m 156.04235,160.48726 5.2,5 -0.2,28.3 -0.3,28.3 -6,3.7 c -8.9,5.5 -9.2,5.4 -10,-4.8 -0.4,-4.7 -0.4,-12.2 0,-16.7 0.6,-7 1.1,-8.6 3.6,-11.5 3.7,-4.1 3.7,-7.3 0,-12.5 -3.4,-4.9 -4.6,-11.2 -3.6,-19.2 0.6,-5.2 0.8,-5.5 3.4,-5.5 1.9,0 4.3,1.5 7.9,4.9"
     id="path44-5" />
  <path
     style="fill:#ffffff;stroke-width:0"
     d="m 134,143 v 8 h 16 v -16 h -16 z"
     id="path43" />
  <path
     style="fill:#ffffff;stroke-width:0"
     d="m 63.5,95.4 c -1.9,1.4 -2,2.8 -2.1,46 -0.1,47.6 0,49.1 4.6,49.1 h 2.5 l 0.3,-19 0.2,-19.1 -3,-3.4 c -4.1,-4.5 -4.1,-8.9 0,-13.2 l 3,-3.1 -0.2,-19.1 C 68.5,97.5 68.3,94.5 67,94.2 c -0.9,-0.1 -2.4,0.4 -3.5,1.2"
     id="path41" />
  <path
     style="fill:#ffffff;stroke-width:0"
     d="M 82.3,84.7 76,88.4 v 22.3 c 0,12.2 0.4,22.4 0.8,22.7 0.5,0.3 2.1,2.3 3.6,4.4 2.6,3.8 2.6,4.2 1.3,7.3 -0.8,1.9 -2.4,4.3 -3.6,5.3 -2,1.8 -2.1,2.7 -2.1,24.2 v 22.2 l 5.7,3.7 c 3.2,1.9 6.7,3.4 7.8,3.3 1.8,-0.3 2,-1.2 2.3,-9.5 0.3,-8.9 0.2,-9.2 -2.7,-12.6 -1.9,-2.2 -3.1,-4.6 -3.1,-6.4 0,-2.9 2.3,-7.1 4.7,-8.6 0.9,-0.5 1.3,-3 1.3,-7.2 V 153 l 5.6,-5.6 5.6,-5.6 -5.6,-5.7 c -5.4,-5.5 -5.6,-5.8 -5.6,-11.2 0,-4.7 -0.4,-5.9 -3,-8.7 -4,-4.4 -4,-8.3 0,-12.9 3,-3.4 3.1,-3.7 2.8,-12.6 -0.2,-7.2 -0.6,-9.2 -1.8,-9.4 -0.8,-0.2 -4.3,1.4 -7.7,3.4"
     id="path20" />
  <path
     style="fill:#ffffff;stroke-width:0"
     d="m 204.34631,84.670595 6.3,3.7 V 110.6706 c 0,12.20002 -0.4,22.40001 -0.8,22.70002 -0.5,0.3 -2.1,2.3 -3.6,4.4 -2.6,3.8 -2.6,4.2 -1.3,7.3 0.8,1.9 2.4,4.3 3.6,5.3 2,1.8 2.1,2.7 2.1,24.2 v 22.19999 l -5.7,3.7 c -3.2,1.9 -6.7,3.4 -7.8,3.3 -1.8,-0.3 -2,-1.19999 -2.3,-9.5 -0.3,-8.9 -0.2,-9.19999 2.7,-12.59999 1.9,-2.2 3.1,-4.6 3.1,-6.40001 0,-2.9 -2.3,-7.09999 -4.7,-8.59999 -0.9,-0.5 -1.3,-3 -1.3,-7.2 v -6.50001 l -5.6,-5.6 -5.6,-5.59999 5.6,-5.7 c 5.4,-5.5 5.6,-5.8 5.6,-11.2 0,-4.70001 0.4,-5.90001 3,-8.70002 4,-4.4 4,-8.3 0,-12.9 -3,-3.400009 -3.1,-3.700005 -2.8,-12.600005 0.2,-7.2 0.6,-9.2 1.8,-9.4 0.8,-0.2 4.3,1.4 7.7,3.4"
     id="path20-8" />
  <path
     style="fill:#ffffff;stroke-width:0"
     d="m 179.2071,72.586603 6,3.3 0.3,12.399999 0.2,12.400008 -3.1,3.3 c -4.2,4.50001 -4.2,8.90001 0,13.70001 2.3,2.6 3.1,4.6 3.1,7.3 0,3.3 -0.8,4.5 -6,9.7 -3.5,3.4 -6,6.8 -6,8 0,1.2 2.5,4.6 6,8 5.5,5.5 6,6.3 6,10.3 0,3.4 -0.7,5.3 -3,8.2 -3.9,4.9 -3.9,8.6 0,13.5 l 3.1,3.8 -0.3,12.6 -0.3,12.6 -6.8,3.9 c -5.3,3 -7.1,3.6 -8,2.7 -0.9,-0.9 -1.3,-8.6 -1.4,-27.3 l -0.2,-26.1 -5.6,-5.8 -5.5,-5.8 v -19.8 l 5.7,-5.2 5.8,-5.2 V 98.886602 c 0.1,-13.3 0.2,-25.399999 0.3,-26.999999 0.3,-3.6 2.2,-3.5 9.7,0.7"
     id="path49-9" />
  <path
     style="fill:#ffffff;stroke-width:0"
     d="m 152.91118,57.958389 6.5,3.9 0.3,28.3 0.2,28.300001 -5,4.8 c -4.2,4.2 -5.5,4.9 -8.2,4.6 l -3.3,-0.3 0.2,-10.2 c 0.1,-9.9 0.2,-10.4 3.2,-14 3.9,-4.700001 4,-8.100001 0.2,-11.700001 -2.7,-2.6 -3,-3.4 -3.5,-13 -0.7,-11.1 0.3,-23.7 1.9,-24.3 0.6,-0.2 4,1.4 7.5,3.6"
     id="path18-2" />
  <path
     style="fill:#ffffff;stroke-width:0"
     d="m 222.33716,95.962771 c 1.9,1.4 2,2.8 2.1,45.999999 0.1,47.6 0,49.1 -4.6,49.1 h -2.5 l -0.3,-19 -0.2,-19.1 3,-3.4 c 4.1,-4.5 4.1,-8.9 0,-13.2 l -3,-3.1 0.2,-19.1 c 0.3,-16.099999 0.5,-19.099999 1.8,-19.399999 0.9,-0.1 2.4,0.4 3.5,1.2"
     id="path41-1" />
  <path
     style="fill:#ffffff"
     d="m 127.31363,133.09011 30.73088,-0.23105"
     id="path1" />
  <path
     style="fill:#1a1a1a;stroke-width:0.326767"
     d="m 65.102,190.26836 c -2.388723,-0.29574 -2.917667,-2.76811 -3.374878,-15.77473 -0.390639,-11.11282 -0.116341,-67.31539 0.358116,-73.37664 0.1555,-1.986531 0.45494,-3.989837 0.665422,-4.451795 0.690775,-1.516085 4.119077,-2.885965 4.733697,-1.891489 0.584366,0.945524 0.862516,6.208584 1.121923,21.228614 l 0.284996,16.50174 -2.039566,2.12398 c -3.101574,3.22995 -3.95119,4.88613 -3.93934,7.67903 0.01201,2.82982 0.611461,4.06601 3.717618,7.66643 l 2.242404,2.59922 -0.13183,11.36891 c -0.07251,6.2529 -0.219026,14.78771 -0.325598,18.96625 l -0.193768,7.59733 -1.02543,-0.0523 c -0.563987,-0.0288 -1.506181,-0.11182 -2.093766,-0.18456 z"
     id="path32" />
  <path
     style="fill:#1a1a1a;stroke-width:0.326767"
     d="m 87.900347,203.35029 c -1.859755,-0.71786 -6.199415,-3.07252 -8.765783,-4.75623 l -3.047359,-1.99928 0.139838,-21.09867 c 0.08659,-13.0652 0.268348,-21.55991 0.47735,-22.31006 0.185632,-0.66628 1.022462,-1.98968 1.859623,-2.94091 0.83716,-0.95122 2.116645,-2.90586 2.843299,-4.34363 1.105301,-2.18698 1.295874,-2.84609 1.166265,-4.03364 -0.164744,-1.50947 -2.013726,-4.52809 -4.512121,-7.36642 l -1.313216,-1.49189 -0.296867,-6.62471 C 76.2881,122.74126 76.15051,112.74415 76.145621,104.16906 l -0.0089,-15.591079 3.580872,-2.125568 c 4.719607,-2.801509 8.523417,-4.697448 9.675773,-4.822709 0.747477,-0.08125 1.020787,0.08033 1.380094,0.815892 0.551523,1.129065 1.184166,11.158866 0.916645,14.532302 -0.214701,2.707372 -0.539278,3.441192 -2.63339,5.953732 -4.15978,4.99095 -4.179845,8.86691 -0.0702,13.56084 2.343016,2.67613 2.580992,3.37743 2.826962,8.33091 0.163891,3.30051 0.374877,4.74251 0.836935,5.72007 0.342403,0.72442 2.766022,3.49925 5.436891,6.22478 l 4.819087,4.91772 -5.542423,5.53522 -5.542424,5.53524 -0.01423,5.06849 c -0.01902,6.77596 -0.174475,7.45476 -2.196895,9.59318 -2.188368,2.31387 -3.389368,4.74367 -3.591915,7.26698 -0.137524,1.71326 -0.03379,2.25515 0.720608,3.76418 0.484693,0.96955 1.455029,2.44629 2.156304,3.28166 2.165653,2.57975 2.596568,3.55862 2.800762,6.36227 0.253689,3.48322 -0.367132,13.25938 -0.914959,14.40799 -0.438217,0.91879 -1.720939,1.29687 -2.880879,0.84913 z"
     id="path33" />
  <path
     style="fill:#1a1a1a;stroke-width:0.326767"
     d="m 109.09232,216.22084 c -1.86074,-0.97334 -4.65643,-2.52339 -6.21263,-3.44457 l -2.82947,-1.67488 -0.185043,-2.70075 c -0.101772,-1.48542 -0.268866,-7.11211 -0.371319,-12.50377 l -0.186278,-9.80301 2.00283,-2.45076 c 4.83498,-5.9163 5.13237,-9.50636 1.23046,-14.85419 -2.562498,-3.51208 -3.013793,-4.73163 -3.0281,-8.18289 -0.0093,-2.23165 0.134695,-3.23641 0.59687,-4.16624 0.33498,-0.67394 2.59534,-3.32057 5.02302,-5.88141 4.14705,-4.37453 6.28478,-7.24406 6.29185,-8.44572 0.006,-1.04455 -2.60117,-4.47798 -6.59516,-8.68478 -2.24769,-2.36746 -4.35417,-4.86722 -4.68108,-5.55504 -1.476787,-3.10715 -0.838053,-6.38947 1.96025,-10.07329 2.7463,-3.61537 3.18252,-4.52535 3.36027,-7.0097 0.21501,-3.00497 -0.70317,-4.99693 -3.81176,-8.26946 l -2.326442,-2.44914 0.178104,-9.598193 c 0.09796,-5.279006 0.259521,-10.809295 0.35903,-12.289531 l 0.180928,-2.691338 2.96846,-1.673381 c 4.01181,-2.261536 8.37197,-4.407903 9.50025,-4.676667 1.33325,-0.31759 2.0755,0.02217 2.46038,1.126244 0.21256,0.609759 0.423,10.509427 0.56958,26.794804 l 0.23246,25.827752 5.66631,5.10856 5.66631,5.10855 v 9.78599 9.78599 l -5.5271,5.77283 -5.52709,5.77283 -0.21207,20.08357 c -0.2314,21.91467 -0.58417,31.25521 -1.2317,32.61272 -0.67176,1.40833 -1.75149,1.27124 -5.52212,-0.70113 z"
     id="path34" />
  <path
     style="fill:#1a1a1a;stroke-width:0.326767"
     d="m 132.12427,127.15341 c -0.74805,-0.35031 -3.27391,-2.45119 -5.61301,-4.66863 l -4.25291,-4.03171 -0.0237,-8.197 c -0.0131,-4.50835 0.0736,-17.234492 0.19252,-28.280306 l 0.21626,-20.083299 4.76694,-2.812725 c 5.91482,-3.490028 8.30129,-4.665313 8.95992,-4.412575 1.26282,0.48459 1.98847,6.805046 1.95845,17.058211 -0.0238,8.122608 -0.42366,13.833644 -1.1348,16.207213 -0.20548,0.685832 -1.24897,2.229944 -2.32977,3.447501 -2.23955,2.52292 -2.85321,3.76207 -2.84306,5.740932 0.009,1.791059 0.78795,3.477988 2.83866,6.148998 0.90181,1.17458 1.88408,2.60828 2.18284,3.18601 0.76376,1.47695 1.16164,6.30085 1.17147,14.20272 l 0.008,6.78042 -0.73523,0.003 c -0.40437,0.002 -1.47045,0.0806 -2.36906,0.17559 -1.21353,0.1283 -1.98372,0.009 -2.99392,-0.46418 z"
     id="path35" />
  <path
     style="fill:#1a1a1a;stroke-width:0.326767"
     d="m 144.71818,127.5304 -1.18333,-0.12567 0.11811,-4.31245 c 0.34626,-12.64306 0.44441,-14.54152 0.80938,-15.65519 0.21863,-0.66713 1.18497,-2.24653 2.14742,-3.50978 4.34318,-5.700606 4.40758,-8.260872 0.3196,-12.707568 -2.30557,-2.507882 -2.6995,-3.845689 -3.14073,-10.666078 -0.7377,-11.403028 -0.0627,-23.467196 1.42707,-25.504531 0.41076,-0.561755 0.49162,-0.56247 1.86466,-0.01649 0.78941,0.313901 3.81064,1.979025 6.71386,3.700277 l 5.27859,3.129548 0.18572,4.604687 c 0.10214,2.532577 0.25177,15.265462 0.33249,28.2953 l 0.14678,23.690615 -4.30401,4.06442 c -2.36721,2.23544 -4.89219,4.32698 -5.61108,4.64787 -1.24597,0.55616 -2.47638,0.64415 -5.10453,0.36504 z"
     id="path36" />
  <path
     style="fill:#1a1a1a;stroke-width:0.326767"
     d="m 133.64774,229.85731 c -0.98847,-0.45863 -3.86886,-2.10785 -6.40086,-3.66493 l -4.60363,-2.83105 -0.21618,-20.07636 c -0.1189,-11.042 -0.21618,-23.70848 -0.21618,-28.14774 v -8.07138 l 3.76414,-3.64647 c 2.07028,-2.00556 4.59575,-4.17845 5.61216,-4.82864 1.98817,-1.27181 4.12899,-1.73081 5.257,-1.12712 1.10805,0.59301 1.53539,3.39467 1.52597,10.00451 -0.008,5.49759 -0.0655,6.05258 -0.88349,8.49595 -0.48131,1.43777 -1.66279,3.86402 -2.62551,5.39166 -0.96272,1.52763 -1.99719,3.40543 -2.29883,4.17289 -1.14515,2.91363 -0.50371,5.58493 2.09672,8.73181 2.97386,3.59878 3.51065,5.98612 3.78441,16.8311 0.26625,10.54699 -0.38617,17.76393 -1.72709,19.10485 -0.66936,0.66936 -0.96576,0.6366 -3.06863,-0.33908 z"
     id="path37" />
  <path
     style="fill:#1a1a1a;stroke-width:0.326767"
     d="m 134.30127,143.12399 v -7.84241 h 7.84241 7.84241 v 7.84241 7.84241 h -7.84241 -7.84241 z"
     id="path38" />
  <path
     style="fill:#1a1a1a;stroke-width:0.231059"
     d="m 146.29966,228.63042 c -1.01564,-1.29118 -1.41498,-4.77313 -1.5837,-13.8089 -0.18829,-10.08354 0.37869,-16.16052 1.77258,-18.99883 0.37446,-0.76249 1.31513,-2.158 2.09037,-3.10114 1.99044,-2.42147 2.36353,-3.24088 2.48059,-5.44805 0.12451,-2.34777 -0.28106,-3.47618 -2.48622,-6.91742 -2.5005,-3.90211 -3.55781,-7.0446 -3.92851,-11.67609 -0.35559,-4.44265 0.44024,-11.36045 1.42861,-12.41835 0.476,-0.50948 0.68359,-0.56176 1.92005,-0.48358 2.5013,0.15815 4.35697,1.39972 9.6815,6.47759 l 3.44291,3.2834 -0.17948,24.0376 c -0.0987,13.22068 -0.24433,25.94917 -0.3236,28.28554 l -0.14413,4.24793 -4.50565,2.76617 c -7.17337,4.40396 -8.69061,4.99328 -9.66532,3.75413 z"
     id="path39" />
  <path
     style="fill:#1a1a1a;stroke-width:0.231059"
     d="m 170.71084,218.34951 c -1.04185,-0.62974 -1.31243,-5.45959 -1.57268,-28.07224 -0.11847,-10.29369 -0.21955,-20.23893 -0.22463,-22.10054 l -0.009,-3.38475 -5.53616,-5.74209 -5.53617,-5.74209 -0.009,-9.85549 -0.009,-9.85548 3.63918,-3.31489 c 2.00155,-1.82319 4.58806,-4.17216 5.74778,-5.21994 l 2.1086,-1.90503 0.10552,-25.822072 c 0.0945,-23.135698 0.14444,-25.912363 0.47964,-26.69001 0.47046,-1.091421 1.13324,-1.360363 2.58792,-1.050111 1.10734,0.236174 5.44537,2.376755 10.0547,4.961451 l 2.42612,1.360456 0.14659,2.534787 c 0.0806,1.394133 0.22096,6.953795 0.31185,12.354805 l 0.16525,9.820014 -1.95419,2.08149 c -2.36756,2.52177 -3.52341,4.27506 -3.98394,6.04315 -0.42642,1.63713 -0.4311,2.39685 -0.0242,3.92506 0.43688,1.6408 1.30647,3.16165 2.96228,5.18082 0.77412,0.94398 1.72946,2.39219 2.12298,3.21822 0.65917,1.38366 0.7155,1.69288 0.7155,3.92801 0,2.26335 -0.0465,2.51015 -0.69318,3.6785 -0.40424,0.73035 -2.22255,2.84922 -4.36226,5.0833 -3.98463,4.1604 -5.3773,5.84503 -6.29618,7.61613 -0.53391,1.02908 -0.56695,1.23354 -0.32019,1.98124 0.45092,1.36629 2.69711,4.16485 6.60441,8.22854 2.17993,2.26718 3.96372,4.34013 4.37422,5.08331 0.674,1.22019 0.69318,1.34124 0.69318,4.37422 0,2.97739 -0.0315,3.1876 -0.6926,4.62054 -0.38094,0.82569 -1.31093,2.33335 -2.06665,3.35036 -0.75573,1.01702 -1.69177,2.47298 -2.08011,3.23547 -0.64788,1.27212 -0.70606,1.57675 -0.70606,3.69695 0,2.23639 0.0284,2.36378 0.88508,3.96673 0.4868,0.91087 1.79439,2.78245 2.90576,4.15907 l 2.02066,2.50292 -0.29293,11.6685 c -0.16111,6.41767 -0.29896,12.05068 -0.30633,12.51781 l -0.0134,0.84933 -4.48639,2.56493 c -6.61066,3.7794 -8.91605,4.75199 -9.88121,4.16862 z"
     id="path40" />
  <path
     style="fill:#1a1a1a;stroke-width:0.231059"
     d="m 196.02633,202.97611 c -0.59667,-0.91063 -0.73966,-2.08749 -1.02564,-8.44136 -0.28119,-6.24725 -0.13922,-8.50124 0.62973,-9.99838 0.20587,-0.40081 1.04654,-1.56057 1.86817,-2.57723 1.68951,-2.09057 2.98652,-4.57813 3.19875,-6.13494 0.32627,-2.39341 -1.29124,-6.05897 -3.71633,-8.42179 -0.78258,-0.7625 -1.56221,-1.75027 -1.73249,-2.19506 -0.21757,-0.56828 -0.33953,-2.53337 -0.41024,-6.60962 l -0.10062,-5.8009 -5.50387,-5.50029 -5.50387,-5.50028 4.803,-5.019 c 6.16533,-6.4426 6.00402,-6.13634 6.24239,-11.85146 0.21125,-5.06459 0.41878,-5.67938 2.89886,-8.58748 2.20142,-2.58134 3.00288,-4.34437 2.99358,-6.58519 -0.009,-2.24033 -0.81198,-4.0184 -2.97274,-6.58519 -0.85585,-1.01666 -1.75691,-2.23366 -2.00237,-2.70446 -0.71337,-1.36825 -0.94723,-3.83134 -0.79624,-8.386379 0.24315,-7.335709 0.68876,-10.30355 1.59951,-10.653036 0.79513,-0.30512 4.11218,1.237516 10.14069,4.716046 l 3.88213,2.240043 -0.11433,20.217686 c -0.0629,11.11972 -0.21257,21.16647 -0.33264,22.32609 l -0.21831,2.10842 -1.43573,1.70406 c -1.95464,2.31994 -4.12155,5.64698 -4.30104,6.60373 -0.21853,1.16488 0.0263,2.24807 0.94594,4.18449 0.91505,1.92684 2.45117,4.15657 3.64759,5.2946 1.66831,1.58688 1.77691,3.22744 1.77852,26.86531 l 0.001,19.06239 -2.94354,1.88704 c -3.58638,2.29915 -5.90773,3.56263 -7.97435,4.34031 -2.05681,0.774 -3.03952,0.7745 -3.5458,0.002 z"
     id="path42" />
  <path
     style="fill:#ffffff;stroke-width:0.231059"
     d="m 217.34481,183.1722 c -0.081,-4.22549 -0.21106,-12.72559 -0.28897,-18.88909 l -0.14166,-11.20637 2.23137,-2.54165 c 1.32484,-1.50906 2.53195,-3.14985 2.97122,-4.03868 0.66751,-1.35064 0.73985,-1.70133 0.73985,-3.58628 0,-1.88512 -0.0725,-2.23655 -0.7422,-3.59688 -0.50393,-1.02363 -1.46291,-2.27162 -2.98714,-3.88738 l -2.24493,-2.37975 0.27611,-15.86333 c 0.28094,-16.14051 0.47621,-20.006542 1.08399,-21.461156 0.33235,-0.795428 0.36776,-0.813215 1.38971,-0.698027 0.57677,0.06501 1.53823,0.419214 2.13657,0.787118 0.90454,0.556181 1.15447,0.868474 1.48292,1.852975 0.74206,2.22426 0.88937,7.92781 1.02841,39.81654 0.14098,32.33545 -0.0328,43.99881 -0.72369,48.57068 -0.62392,4.12873 -1.20925,4.804 -4.1641,4.804 h -1.90015 z"
     id="path45" />
  <path
     style="fill:#ffffff;stroke-width:0.231059"
     d="m 65.73635,190.23331 c -2.478329,-0.32266 -2.989496,-1.54409 -3.607801,-8.62076 -0.367817,-4.20976 -0.524856,-51.44751 -0.224297,-67.46929 0.244862,-13.05275 0.449294,-16.361909 1.087862,-17.609283 0.574405,-1.122036 3.401233,-2.371719 4.185651,-1.850392 0.157365,0.104586 0.388635,0.730722 0.513933,1.391414 0.323963,1.708251 0.662975,10.654441 0.811648,21.418621 0.07021,5.0833 0.185425,10.5029 0.256034,12.04356 l 0.128379,2.80119 -1.969471,2.10956 c -3.319224,3.55533 -4.070179,5.01004 -4.070179,7.88455 0,2.77988 0.835946,4.40999 4.324906,8.43366 l 1.602827,1.84848 -0.171342,12.70826 c -0.09424,6.98954 -0.244545,15.48963 -0.334015,18.88909 l -0.162673,6.18083 -0.839142,-0.0346 c -0.461529,-0.019 -1.151073,-0.0752 -1.53232,-0.12487 z"
     id="path47" />
  <path
     style="fill:#ffffff;stroke-width:0.231059"
     d="m 85.145325,201.87894 c -3.066324,-1.5941 -3.653684,-1.93522 -6.758483,-3.92519 l -2.137298,-1.36986 0.0086,-10.54721 c 0.0047,-5.80096 0.100297,-15.49977 0.212409,-21.55292 0.232495,-12.55287 0.02272,-11.34024 2.532859,-14.64185 1.757536,-2.31171 3.492417,-5.68737 3.652393,-7.10667 0.09783,-0.86792 -0.01213,-1.35049 -0.588279,-2.58168 -0.797819,-1.7049 -2.212673,-3.76534 -3.939274,-5.73674 -0.695779,-0.79443 -1.216019,-1.63227 -1.291235,-2.07953 -0.275554,-1.63855 -0.587348,-17.82994 -0.585723,-30.41645 l 0.0017,-13.309627 3.637464,-2.115861 c 2.000606,-1.163723 4.822587,-2.697379 6.27107,-3.408123 2.792265,-1.370115 3.995291,-1.611952 4.386103,-0.881713 0.644539,1.204331 1.324902,11.659486 0.975447,14.98971 -0.248153,2.364836 -0.635219,3.293504 -2.159225,5.180524 -2.244834,2.77955 -3.072116,4.31893 -3.405908,6.33762 -0.406855,2.46055 0.515388,4.89278 3.015383,7.95246 2.256669,2.76188 2.409171,3.22518 2.75169,8.35951 0.132224,1.98204 0.391899,4.11356 0.577054,4.73671 0.388683,1.30814 2.127217,3.3942 7.167195,8.59989 l 3.202523,3.30782 -5.450462,5.47243 -5.450464,5.47243 -0.09267,5.66095 c -0.107598,6.57322 -0.18489,6.87625 -2.37529,9.31232 -0.70814,0.78756 -1.719622,2.29637 -2.247738,3.3529 -0.858717,1.71793 -0.970415,2.13437 -1.056733,3.93979 -0.09284,1.94175 -0.0654,2.0801 0.718751,3.62445 0.448399,0.8831 1.54943,2.56898 2.446737,3.7464 2.256005,2.96025 2.444165,3.65975 2.40753,8.95008 -0.0299,4.31741 -0.392531,9.30456 -0.785166,10.79809 -0.484028,1.84117 -1.926634,1.81031 -5.640951,-0.12066 z"
     id="path48" />
  <path
     style="fill:#ffffff;stroke-width:0.231059"
     d="m 109.12275,216.03971 c -1.75015,-0.88994 -4.4818,-2.37261 -6.07034,-3.29481 l -2.88824,-1.67674 -0.15899,-2.4239 c -0.08745,-1.33315 -0.262591,-6.93387 -0.389208,-12.44606 l -0.230213,-10.02215 1.528651,-1.8774 c 3.18074,-3.90637 4.27501,-6.14552 4.30504,-8.80917 0.0253,-2.246 -0.50288,-3.59551 -2.69637,-6.88898 -2.612927,-3.92323 -2.796619,-4.45467 -2.810048,-8.12987 -0.01449,-3.96471 -0.220632,-3.61661 6.442808,-10.87949 2.88115,-3.14034 4.39314,-5.09671 5.0226,-6.49875 0.38853,-0.86539 0.40159,-1.0571 0.11802,-1.73294 -0.44774,-1.0671 -2.76464,-4.06306 -5.14422,-6.65192 -6.05827,-6.59111 -6.559749,-7.36282 -6.563457,-10.10018 -0.0029,-2.1318 0.574857,-3.7032 2.267017,-6.16603 0.70739,-1.02957 1.68006,-2.45413 2.16148,-3.1657 1.12545,-1.66345 1.66748,-3.73634 1.51915,-5.80958 -0.16326,-2.28165 -1.07966,-3.96043 -3.83046,-7.01708 l -2.284158,-2.538119 0.182015,-8.538055 c 0.100108,-4.695929 0.252874,-10.173143 0.339481,-12.171585 l 0.157462,-3.633531 2.45783,-1.368292 c 3.59466,-2.001184 8.77915,-4.562695 9.91016,-4.896339 1.33793,-0.394683 2.03504,-0.06529 2.35186,1.111284 0.25267,0.938357 0.66332,22.481465 0.74767,39.223277 0.0269,5.33747 0.0884,10.54012 0.13668,11.56146 l 0.0878,1.85697 5.64204,5.0748 5.64205,5.07481 0.003,9.67664 0.003,9.67663 -4.1013,4.26113 c -2.25571,2.34361 -4.75085,4.9717 -5.54475,5.84018 l -1.44346,1.57905 -0.23071,18.21784 c -0.24086,19.01873 -0.55768,30.04035 -0.94178,32.76262 -0.4254,3.01499 -1.17032,3.1222 -5.69782,0.81998 z"
     id="path49" />
  <path
     style="fill:#ffffff;stroke-width:0.231059"
     d="m 132.6826,127.25571 c -0.90448,-0.29002 -4.0486,-2.89057 -7.66751,-6.34191 l -2.64513,-2.52265 0.038,-13.8502 c 0.0209,-7.617612 0.10811,-20.320632 0.19379,-28.228933 l 0.15579,-14.37873 4.53087,-2.635197 c 5.24078,-3.048083 8.13275,-4.537054 8.81213,-4.537054 0.66148,0 1.08314,1.109322 1.51854,3.995057 0.49735,3.296245 0.70499,16.865188 0.33905,22.156654 -0.45922,6.640247 -0.75214,7.565096 -3.35307,10.586706 -0.71103,0.826037 -1.61695,2.151672 -2.01316,2.945858 -0.64742,1.297737 -0.70815,1.59621 -0.59971,2.947245 0.14897,1.855787 0.80084,3.236724 2.83536,6.006444 1.92443,2.61985 2.31669,3.37668 2.63845,5.09064 0.36304,1.93385 0.69538,8.61537 0.7019,14.11163 l 0.006,4.64554 -1.55965,0.1473 c -2.03332,0.19203 -3.00764,0.15773 -3.93117,-0.1384 z"
     id="path50" />
  <path
     style="fill:#ffffff;stroke-width:0.231059"
     d="m 144.20739,127.37752 -0.55122,-0.10424 0.16461,-6.39172 c 0.0905,-3.51544 0.2494,-7.86941 0.35304,-9.67548 0.21943,-3.8241 0.33017,-4.12595 2.76673,-7.54131 2.3952,-3.35739 2.90136,-4.512263 2.90136,-6.619895 0,-2.146374 -0.41683,-3.036819 -2.69596,-5.759184 -0.89636,-1.070689 -1.81117,-2.370397 -2.03291,-2.88824 -0.95614,-2.232961 -1.42134,-7.84438 -1.41893,-17.11568 0.003,-10.76177 0.77919,-16.520735 2.22724,-16.520735 0.52639,0 5.11867,2.437282 9.25886,4.913996 l 3.72089,2.225882 0.15577,2.264307 c 0.12671,1.842077 0.57629,40.391149 0.59906,51.366989 l 0.006,2.89083 -3.40812,3.156 c -4.2961,3.97828 -6.12108,5.43304 -7.18707,5.72914 -0.82994,0.23052 -3.78411,0.27268 -4.85934,0.0693 z"
     id="path51" />
  <path
     style="fill:#ffffff;stroke-width:0.231059"
     d="m 170.41482,217.59857 c -0.18668,-0.44678 -0.44712,-2.14989 -0.57875,-3.78468 -0.28212,-3.50385 -0.69061,-24.1621 -0.69655,-35.22634 -0.002,-4.26894 -0.0715,-9.16556 -0.15378,-10.88137 l -0.14962,-3.11966 -5.35873,-5.57537 -5.35872,-5.57537 -0.15208,-5.37835 c -0.0836,-2.9581 -0.14757,-7.4059 -0.14205,-9.88401 l 0.01,-4.50566 5.72841,-5.1678 5.7284,-5.16781 0.15283,-12.97034 c 0.0841,-7.13369 0.15947,-18.169179 0.16759,-24.523308 0.017,-13.347771 0.12827,-15.241076 0.93358,-15.893176 0.41141,-0.333146 0.77661,-0.413057 1.47465,-0.322676 0.90084,0.116641 7.45603,3.281721 10.97654,5.299867 1.71962,0.985778 1.73162,0.999364 1.892,2.141551 0.0888,0.632214 0.26586,6.184569 0.39354,12.338567 l 0.23213,11.189085 -1.80521,1.90708 c -3.41746,3.61031 -4.56749,5.95173 -4.34903,8.85443 0.15011,1.99448 0.87131,3.54259 2.91436,6.25592 2.46812,3.27783 2.9025,4.27897 3.00115,6.91677 0.13383,3.57878 0.0734,3.68452 -5.62351,9.83502 -5.2982,5.72007 -6.43,7.45026 -5.93383,9.07105 0.36972,1.20769 1.98922,3.26952 5.93987,7.56216 5.82336,6.32747 5.65387,6.02414 5.64598,10.10447 -0.007,3.45198 -0.27799,4.23466 -2.71399,7.82911 -2.48051,3.66013 -2.82096,4.51022 -2.82369,7.05059 -0.002,1.94493 0.059,2.22809 0.79797,3.69695 0.44013,0.87488 1.74644,2.78642 2.90292,4.24787 l 2.1027,2.65718 -0.129,5.19884 c -0.071,2.85936 -0.1976,8.47571 -0.28145,12.48078 l -0.15245,7.28196 -3.95006,2.24079 c -5.30339,3.00851 -8.14057,4.38339 -9.32146,4.5171 -0.94227,0.1067 -0.99476,0.0788 -1.32068,-0.70122 z"
     id="path52" />
  <path
     style="fill:#ffffff;stroke-width:0.231059"
     d="m 196.05243,202.78488 c -0.51316,-0.78318 -0.7902,-3.63539 -0.95679,-9.85043 -0.19033,-7.10082 -0.14683,-7.3065 2.23342,-10.56054 1.00348,-1.37187 2.16682,-3.17015 2.58519,-3.99619 0.67346,-1.32967 0.76069,-1.71589 0.76069,-3.36817 0,-1.73055 -0.0714,-2.01027 -0.98123,-3.84608 -0.59203,-1.19455 -1.5281,-2.58326 -2.36002,-3.50125 -2.28009,-2.516 -2.12153,-1.91922 -2.35719,-8.87137 l -0.20936,-6.17623 -5.41354,-5.42989 -5.41353,-5.4299 4.06558,-4.27459 c 6.6507,-6.99263 6.49421,-6.71747 6.81947,-11.99029 0.34316,-5.56308 0.5845,-6.22945 3.59444,-9.92485 1.71113,-2.10081 2.24613,-3.48815 2.24125,-5.81197 -0.005,-2.37313 -0.56731,-3.72338 -2.63337,-6.32331 -3.04568,-3.832656 -3.14265,-4.221497 -2.93813,-11.780625 0.14785,-5.464874 0.43594,-8.36507 0.93295,-9.392111 0.231,-0.477333 0.43394,-0.572592 1.16864,-0.548532 1.04218,0.03413 4.80872,1.862021 9.83817,4.774434 l 3.35035,1.9401 -0.08,16.614794 c -0.044,9.13814 -0.15987,19.12354 -0.25752,22.18977 l -0.17754,5.57496 -1.50962,1.85467 c -3.12284,3.83662 -4.33249,5.96543 -4.32321,7.60823 0.011,1.95411 1.9493,5.67998 4.40779,8.47297 1.5841,1.79963 1.6126,2.0285 1.83048,14.69993 0.10598,6.1635 0.19999,15.70016 0.20891,21.19258 l 0.0162,9.98621 -1.32859,0.85946 c -7.98714,5.16687 -12.11243,6.8367 -13.11393,5.30822 z"
     id="path53" />
  <path
     style="fill:#ffffff;stroke-width:0.231059"
     d="m 134.47647,143.14119 v -7.74048 h 7.74048 7.74049 v 7.74048 7.74048 h -7.74049 -7.74048 z"
     id="path54" />
  <path
     style="fill:#ffffff;stroke-width:0.231059"
     d="m 146.4193,228.5654 c -1.06506,-1.17688 -1.54379,-6.25078 -1.5446,-16.37079 -5.9e-4,-7.22741 0.20458,-10.53022 0.83759,-13.48368 0.46829,-2.18492 1.01239,-3.2571 3.06761,-6.04497 1.94518,-2.63859 2.33283,-3.61146 2.33283,-5.85458 0,-2.08958 -0.35325,-3.09946 -2.05708,-5.88078 -2.8308,-4.62098 -3.77538,-7.26247 -4.23272,-11.83666 -0.43734,-4.37412 0.33693,-11.57832 1.36667,-12.71617 0.56097,-0.61986 2.65121,-0.55246 4.11443,0.13268 1.87583,0.87833 3.14529,1.91601 8.26296,6.75424 l 2.48648,2.35072 -0.25095,26.22561 c -0.13802,14.42409 -0.32115,27.14125 -0.40695,28.26037 l -0.156,2.03476 -4.25775,2.59045 c -6.83887,4.16082 -8.62294,4.87702 -9.56252,3.8388 z"
     id="path55" />
  <path
     style="fill:#ffffff;stroke-width:0.231059"
     d="m 134.01435,229.89129 c -0.82604,-0.388 -3.70977,-2.02555 -6.4083,-3.639 l -4.90642,-2.93355 -0.004,-2.75699 c -0.002,-1.51635 -0.11689,-14.14951 -0.25536,-28.0737 l -0.25176,-25.3167 2.62012,-2.4907 c 5.86498,-5.57527 7.97137,-7.05114 10.37449,-7.26905 1.11501,-0.10111 1.38567,-0.0471 1.79016,0.35742 0.88412,0.88412 1.03128,1.98713 1.13952,8.5415 0.0865,5.23764 0.041,6.58398 -0.26942,7.97154 -0.41713,1.86451 -1.94936,5.17858 -3.92334,8.48579 -1.58819,2.66087 -2.08627,4.21917 -1.92323,6.01713 0.15855,1.74853 0.79798,3.12045 2.56905,5.51195 2.3979,3.2379 2.88903,4.55717 3.40661,9.15072 0.39867,3.53826 0.41192,18.96983 0.0187,21.71957 -0.51777,3.62013 -1.2467,5.4303 -2.18647,5.4297 -0.15885,-9e-5 -0.96467,-0.31763 -1.79071,-0.70563 z"
     id="path56" />
</svg>
